# xmcd
#
# Track frame offsets: 
#        150
#        10187
#        23022
#        34527
#        46645
#        57677
#        71947
#        83870
#        97077
#        108020
#        123287
#        135937
#        148520
#        159952
#        173557
#        186812
#        198950
#
# Disc length: 2820 seconds
#
# Revision: 6
# Processed by: cddbd v1.5.2PL0 Copyright (c) Steve Scherf et al.
# Submitted via: ExactAudioCopy v0.95b3
#
DISCID=d40b0211
DTITLE=Conway Twitty - The #1 Hits Collection [CD1]
DYEAR=2000
DGENRE=Country
TTITLE0=Its Only Make Believe
TTITLE1=Next In Line
TTITLE2=I Love You More Today
TTITLE3=To See My Angel Cry
TTITLE4=Hello Darlin'
TTITLE5=Fifteen Years Ago
TTITLE6=After The Fire Is Gone
TTITLE7=How Much More Can She Stand
TTITLE8=Lead Me On
TTITLE9=(Lost Her Love) On Our Last Date
TTITLE10=I Can't Stop Loving you
TTITLE11=She Needs Someone To Hold Her (When She Cries)
TTITLE12=Lousiana Woman, Mississippi Man
TTITLE13=You've Never Been This Far Before
TTITLE14=There's A Honky Tonky Angel (Who'll Take Me Back In)
TTITLE15=As Soon As I Hang Up The Phone
TTITLE16=I See The Want In Your Eyes
EXTD=
EXTT0=
EXTT1=
EXTT2=
EXTT3=
EXTT4=
EXTT5=
EXTT6=
EXTT7=
EXTT8=
EXTT9=
EXTT10=
EXTT11=
EXTT12=
EXTT13=
EXTT14=
EXTT15=
EXTT16=
PLAYORDER=
